<svg xmlns="http://www.w3.org/2000/svg" xmlns:xlink="http://www.w3.org/1999/xlink" width="820" height="401" viewBox="0 0 820 401">
  <defs>
    <linearGradient id="linear-gradient" x1="0.5" x2="0.5" y2="1" gradientUnits="objectBoundingBox">
      <stop offset="0" stop-color="#3292d2"/>
      <stop offset="1" stop-color="#59bcfe"/>
    </linearGradient>
    <linearGradient id="linear-gradient-2" x1="0.5" x2="0.5" y2="1" gradientUnits="objectBoundingBox">
      <stop offset="0" stop-color="#119af5"/>
      <stop offset="1" stop-color="#6dc0f9"/>
    </linearGradient>
    <linearGradient id="linear-gradient-3" x1="0.5" x2="0.5" y2="1" gradientUnits="objectBoundingBox">
      <stop offset="0" stop-color="#e43350"/>
      <stop offset="0" stop-color="#e03152"/>
      <stop offset="1" stop-color="#ca255f"/>
      <stop offset="1" stop-color="#bd1e66"/>
      <stop offset="1" stop-color="#b2186d"/>
    </linearGradient>
    <filter id="Path_4" x="272.969" y="111.35" width="284.01" height="78.473" filterUnits="userSpaceOnUse">
      <feOffset dx="20" dy="30" input="SourceAlpha"/>
      <feGaussianBlur stdDeviation="10" result="blur"/>
      <feFlood flood-color="#b2186d" flood-opacity="0.161" result="color"/>
      <feComposite operator="out" in="SourceGraphic" in2="blur"/>
      <feComposite operator="in" in="color"/>
      <feComposite operator="in" in2="SourceGraphic"/>
    </filter>
    <filter id="Path_5" x="358.218" y="111.35" width="199.502" height="79.159" filterUnits="userSpaceOnUse">
      <feOffset dx="20" dy="30" input="SourceAlpha"/>
      <feGaussianBlur stdDeviation="10" result="blur-2"/>
      <feFlood flood-color="#b2186d" flood-opacity="0.161" result="color-2"/>
      <feComposite operator="out" in="SourceGraphic" in2="blur-2"/>
      <feComposite operator="in" in="color-2"/>
      <feComposite operator="in" in2="SourceGraphic"/>
    </filter>
    <clipPath id="clip-Dream_Spark_Foundation">
      <rect width="820" height="401"/>
    </clipPath>
  </defs>
  <g id="Dream_Spark_Foundation" data-name="Dream Spark Foundation" clip-path="url(#clip-Dream_Spark_Foundation)">
    <g id="Group_1" data-name="Group 1" transform="translate(-148 -189.78)">
      <g id="icon" transform="translate(420.969 205.994)">
        <path id="Path_1" data-name="Path 1" d="M598.64,262.493c-3.543,13.97-5.777,18.589-5.442,20.019,0,2.492,7.389-15.476,7.389-15.476l-4.867,11.356s2.6,12.654,17.2,12.654S608.7,270.28,632.384,275.8s4.867-15.574,4.867-15.574l9.734-11.032,10.383,1.622,3.894-7.463H671l3.894-6.489s-13.628-9.734,0-15.9,27.255-1.947,27.255-1.947l-18.17-8.112S610,217.717,598.64,262.493Z" transform="translate(-511.309 -206.994)" fill="url(#linear-gradient)"/>
        <path id="Path_2" data-name="Path 2" d="M588,305.386l1.372-.528,4.112-1.581,5.905-6.749s5.483-2.953,7.592,0S623,305.386,623,305.386s9.222-3.768,11.91,1.8.96,8.256,0,8.832-3.456,5.568-5.76,6.144-11.328-.576-11.135.96-8.448,3.264-8.64,6.336-3.264-1.536-14.783,9.216S588,305.386,588,305.386Z" transform="translate(-509.309 -205.994)" fill="#52b5f6"/>
        <g id="Subtraction_1" data-name="Subtraction 1" transform="translate(36.691 0.006)" fill="#3292d2">
          <path d="M 107.4995956420898 214.5001068115234 C 93.05451202392578 214.5001068115234 79.04181671142578 211.671142578125 65.85073852539062 206.0917510986328 C 59.51059722900391 203.4100799560547 53.39556884765625 200.0909118652344 47.67551422119141 196.2265014648438 C 42.00959777832031 192.3986663818359 36.68159866333008 188.0026397705078 31.83948707580566 183.1604919433594 C 26.99737548828125 178.3183898925781 22.60137557983398 172.9903564453125 18.77359771728516 167.3244171142578 C 14.90912532806396 161.604248046875 11.58998680114746 155.4891662597656 8.90837574005127 149.1490325927734 C 3.328986644744873 135.9578552246094 0.5000143647193909 121.9449691772461 0.5000143647193909 107.4996109008789 C 0.5000143647193909 93.05449676513672 3.328986644744873 79.04177856445312 8.90837574005127 65.85072326660156 C 11.58998680114746 59.51066589355469 14.90912532806396 53.39563751220703 18.77359771728516 47.6755256652832 C 22.60134696960449 42.00966262817383 26.99734687805176 36.68166351318359 31.83948707580566 31.83949851989746 C 36.68170928955078 26.9973030090332 42.00970840454102 22.60130310058594 47.67548751831055 18.77360916137695 C 53.39554214477539 14.90919208526611 59.51057052612305 11.59005355834961 65.85073852539062 8.908358573913574 C 79.04181671142578 3.328969955444336 93.05451202392578 0.4999978542327881 107.4995956420898 0.4999978542327881 C 117.4137344360352 0.4999978542327881 127.1968383789062 1.849346041679382 136.6362762451172 4.51469612121582 C 136.0899963378906 4.505172252655029 135.5440216064453 4.500386714935303 135.0000152587891 4.500386714935303 C 83.44409942626953 4.500386714935303 41.50029373168945 46.89274597167969 41.50029373168945 99 C 41.50029373168945 151.1072540283203 83.44409942626953 193.4996032714844 135.0000152587891 193.4996032714844 C 154.9364776611328 193.4996032714844 174.4701995849609 186.9890594482422 190.4517974853516 175.0920715332031 C 186.1948394775391 180.3090972900391 181.4433288574219 185.1310577392578 176.2877349853516 189.4625854492188 C 170.0586547851562 194.6960601806641 163.235595703125 199.2166900634766 156.0081329345703 202.8990020751953 C 148.6504058837891 206.6476593017578 140.8563995361328 209.5352172851562 132.8426513671875 211.4813842773438 C 124.5946502685547 213.4844665527344 116.0680160522461 214.5001068115234 107.4995956420898 214.5001068115234 Z" stroke="none"/>
          <path d="M 107.4995956420898 214.0001068115234 C 116.0282897949219 214.0001068115234 124.5152359008789 212.9892272949219 132.7246551513672 210.9955291748047 C 140.70068359375 209.0585021972656 148.4580078125 206.1845245361328 155.7811279296875 202.4534759521484 C 162.9748229980469 198.7883911132812 169.7660369873047 194.2888336181641 175.9661254882812 189.0797729492188 C 180.0823516845703 185.6214904785156 183.9398803710938 181.8490142822266 187.4919738769531 177.8116455078125 C 172.0635681152344 188.2982025146484 153.7092742919922 193.9996032714844 135.0000152587891 193.9996032714844 C 83.16840362548828 193.9996032714844 41.00029373168945 151.3829650878906 41.00029373168945 99 C 41.00029373168945 47.3555793762207 81.98549652099609 5.204095363616943 132.8112945556641 4.025762557983398 C 124.5653457641602 2.015658140182495 116.08251953125 0.9999978542327881 107.4995956420898 0.9999978542327881 C 93.12179565429688 0.9999978542327881 79.17462921142578 3.815692186355591 66.04551696777344 9.36885929107666 C 59.7350959777832 12.03797054290771 53.64870834350586 15.34158134460449 47.95540237426758 19.18794250488281 C 42.31598663330078 22.997802734375 37.01276397705078 27.37335968017578 32.19304275512695 32.19305419921875 C 27.37340354919434 37.01271820068359 22.99784851074219 42.31594085693359 19.18790245056152 47.95541381835938 C 15.34151458740234 53.6488037109375 12.03793144226074 59.73516464233398 9.368875503540039 66.04549407958984 C 3.815708875656128 79.17460632324219 1.000014424324036 93.12177276611328 1.000014424324036 107.4996109008789 C 1.000014424324036 121.8776931762695 3.815708875656128 135.8250274658203 9.368875503540039 148.9542541503906 C 12.03790283203125 155.2646636962891 15.34151458740234 161.35107421875 19.18793106079102 167.0444946289062 C 22.99787521362305 172.68408203125 27.3734302520752 177.9873352050781 32.19304275512695 182.8069458007812 C 37.01265335083008 187.6265869140625 42.31587600708008 192.0021667480469 47.95540237426758 195.8121948242188 C 53.64873504638672 199.6585235595703 59.73512649536133 202.9621429443359 66.04551696777344 205.6312408447266 C 79.17462921142578 211.1844177246094 93.12179565429688 214.0001068115234 107.4995956420898 214.0001068115234 M 107.4995956420898 215.0001068115234 C 92.98723602294922 215.0001068115234 78.90898895263672 212.1578369140625 65.65596008300781 206.55224609375 C 59.28609848022461 203.8580017089844 53.14245986938477 200.5233306884766 47.39559936523438 196.6408081054688 C 41.70331954956055 192.795166015625 36.35054397583008 188.3786926269531 31.48593139648438 183.5140533447266 C 26.62129211425781 178.6494140625 22.20484733581543 173.2965850830078 18.35929298400879 167.6043090820312 C 14.4767370223999 161.8573913574219 11.14204216003418 155.7136383056641 8.447875022888184 149.3438110351562 C 2.842264413833618 136.0906066894531 1.437717037333641e-05 122.0121917724609 1.437717037333641e-05 107.4996109008789 C 1.437717037333641e-05 92.98727416992188 2.842264413833618 78.90902709960938 8.447875022888184 65.65594482421875 C 11.14204216003418 59.28622055053711 14.47670841217041 53.14255523681641 18.35929298400879 47.39561080932617 C 22.20487594604492 41.7033576965332 26.6213207244873 36.35058212280273 31.48593139648438 31.48594284057617 C 36.35054397583008 26.62135887145996 41.70331954956055 22.20488739013672 47.39559936523438 18.35930252075195 C 53.14237594604492 14.47683143615723 59.28604125976562 11.1421365737915 65.65596008300781 8.447858810424805 C 78.90898895263672 2.842275619506836 92.98723602294922 -2.149793772332487e-06 107.4995956420898 -2.149793772332487e-06 C 118.7741241455078 -2.149793772332487e-06 129.8796844482422 1.7369145154953 140.5077056884766 5.162525653839111 C 138.6969604492188 5.055608749389648 136.8440399169922 5.000386714935303 135.0000152587891 5.000386714935303 C 83.71979522705078 5.000386714935303 42.00029373168945 47.16844177246094 42.00029373168945 99 C 42.00029373168945 150.8315582275391 83.71979522705078 192.9996032714844 135.0000152587891 192.9996032714844 C 156.1881866455078 192.9996032714844 176.9176330566406 185.6069946289062 193.3697662353516 172.1835784912109 C 188.4727020263672 178.674560546875 182.8332672119141 184.6163635253906 176.609375 189.8454132080078 C 170.3511810302734 195.1033020019531 163.4962921142578 199.64501953125 156.2350921630859 203.3444976806641 C 148.8428497314453 207.1107788085938 141.0121765136719 210.0119171142578 132.9606475830078 211.9672698974609 C 124.6740417480469 213.9797210693359 116.1077117919922 215.0001068115234 107.4995956420898 215.0001068115234 Z" stroke="none" fill="#3292d2"/>
        </g>
        <g id="Subtraction_4" data-name="Subtraction 4" transform="translate(38.44 0)" fill="url(#linear-gradient-2)">
          <path d="M 107.571662902832 214.5061492919922 C 105.6909942626953 214.5061492919922 103.7839965820312 214.4562683105469 101.9036026000977 214.3578796386719 C 87.47799682617188 213.6017303466797 73.63254547119141 210.043212890625 60.75193786621094 203.7812042236328 C 54.55929946899414 200.7704772949219 48.62638092041016 197.1356811523438 43.11801910400391 192.9777679443359 C 37.65802001953125 188.8568115234375 32.56735610961914 184.1880950927734 27.9874095916748 179.101318359375 C 23.40324401855469 174.0089569091797 19.29210472106934 168.4580078125 15.76818752288818 162.6027069091797 C 12.20832633972168 156.6872100830078 9.213993072509766 150.4067840576172 6.868381977081299 143.9359588623047 C 1.986493229866028 130.4718170166016 -0.1054234653711319 116.3301239013672 0.6506876349449158 101.9036483764648 C 1.406715393066406 87.47995758056641 4.965243339538574 73.63448333740234 11.22741031646729 60.75184631347656 C 14.23821544647217 54.55906677246094 17.87299346923828 48.62617874145508 22.03077125549316 43.11798477172852 C 26.15174293518066 37.65803909301758 30.82046508789062 32.56734466552734 35.90727233886719 27.98734474182129 C 40.99968719482422 23.40315055847168 46.55060577392578 19.29201126098633 52.40582656860352 15.76815032958984 C 58.32074356079102 12.20862293243408 64.60088348388672 9.214289665222168 71.07171630859375 6.868317127227783 C 81.88314056396484 2.948510885238647 93.17316436767578 0.8211272358894348 104.6712112426758 0.5336737036705017 C 98.44880676269531 1.543552994728088 92.31729888916016 3.131860256195068 86.36554718017578 5.27903938293457 C 80.17129516601562 7.513455867767334 74.15943908691406 10.36678886413574 68.49691009521484 13.75976181030273 C 62.88879776000977 17.11953926086426 57.57568740844727 21.03717803955078 52.70521545410156 25.40387344360352 C 47.83357620239258 29.77081680297852 43.36479949951172 34.62237167358398 39.42307662963867 39.82376098632812 C 35.44179916381836 45.07698440551758 31.96335411071777 50.73215103149414 29.08435440063477 56.63209533691406 C 23.09124374389648 68.910400390625 19.68696594238281 82.10856628417969 18.96610450744629 95.8599853515625 C 18.24524307250977 109.6107025146484 20.25127029418945 123.0925369262695 24.92838287353516 135.9308929443359 C 27.17621612548828 142.1017913818359 30.04457664489746 148.0895080566406 33.45374298095703 153.727783203125 C 36.82996368408203 159.3120727539062 40.76682662963867 164.6042022705078 45.15496444702148 169.4571990966797 C 49.54218673706055 174.3083801269531 54.41679763793945 178.7600402832031 59.64340972900391 182.6885681152344 C 64.92176818847656 186.6550445556641 70.60254669189453 190.1211853027344 76.52799224853516 192.9907684326172 C 88.86305236816406 198.9629516601562 102.1192169189453 202.3579254150391 115.9282455444336 203.0813751220703 C 117.7449340820312 203.1762084960938 119.5808258056641 203.2242889404297 121.3849639892578 203.2242889404297 C 127.7465515136719 203.2242889404297 134.1130523681641 202.6367034912109 140.3076324462891 201.4778442382812 C 148.0649719238281 200.0274810791016 155.6611022949219 197.6692047119141 162.8849639892578 194.468505859375 C 169.9788513183594 191.3245086669922 176.7276000976562 187.3630065917969 182.9437713623047 182.6940460205078 C 183.8654174804688 182.0017242431641 184.7814483642578 181.2888641357422 185.6858978271484 180.5602264404297 C 181.4607238769531 185.0761566162109 176.8434753417969 189.2308197021484 171.9077911376953 192.9543151855469 C 165.4148864746094 197.8537902832031 158.3646087646484 202.01123046875 150.9527130126953 205.3112640380859 C 143.4075469970703 208.6703491210938 135.4732971191406 211.1459350585938 127.3703231811523 212.6692657470703 C 120.8884124755859 213.8881225585938 114.2271881103516 214.5061492919922 107.571662902832 214.5061492919922 Z" stroke="none"/>
          <path d="M 107.571662902832 214.0061492919922 C 114.1962738037109 214.0061492919922 120.8264083862305 213.3910369873047 127.277961730957 212.1778717041016 C 135.3427429199219 210.6617279052734 143.2396850585938 208.1977844238281 150.7493286132812 204.8544769287109 C 158.1265716552734 201.5699005126953 165.1439666748047 197.4318237304688 171.6066589355469 192.55517578125 C 174.6545715332031 190.2558288574219 177.5802917480469 187.7914581298828 180.3666381835938 185.1784210205078 C 174.9332427978516 188.9737396240234 169.13525390625 192.2452850341797 163.0874938964844 194.9256439208984 C 155.8282470703125 198.1420135498047 148.1949157714844 200.5118408203125 140.3995819091797 201.9693145751953 C 134.1747436523438 203.1338500976562 127.7772979736328 203.7242889404297 121.3849639892578 203.7242889404297 C 119.5721588134766 203.7242889404297 117.7275238037109 203.6759796142578 115.9021072387695 203.5807037353516 C 102.0261306762695 202.8537292480469 88.70546722412109 199.4421844482422 76.31005096435547 193.4407958984375 C 70.35562896728516 190.5571746826172 64.64713287353516 187.0740966796875 59.34299468994141 183.0882263183594 C 54.09096527099609 179.140625 49.19266128540039 174.6673126220703 44.78407669067383 169.7925720214844 C 40.37460327148438 164.9159545898438 36.41857528686523 159.5980072021484 33.02588272094727 153.9864807128906 C 29.59996604919434 148.3205413818359 26.71749305725098 142.3033142089844 24.45860481262207 136.1020660400391 C 19.75835418701172 123.2002029418945 17.74241065979004 109.6520080566406 18.46677017211914 95.83378601074219 C 19.19118690490723 82.01495361328125 22.6122989654541 68.75179290771484 28.6349925994873 56.41281890869141 C 31.5281867980957 50.48376083374023 35.02376937866211 44.80078887939453 39.02457809448242 39.52178955078125 C 42.98554992675781 34.29498291015625 47.47610473632812 29.41976165771484 52.37143707275391 25.03159523010254 C 57.26560592651367 20.64367866516113 62.60454940795898 16.70695495605469 68.23990631103516 13.33084487915039 C 73.93007659912109 9.921344757080078 79.97132873535156 7.054067134857178 86.19585418701172 4.808705806732178 C 89.88675689697266 3.477167129516602 93.64702606201172 2.359365701675415 97.4544677734375 1.460208296775818 C 88.50904846191406 2.29488205909729 79.72714233398438 4.262035369873047 71.24213409423828 7.338372707366943 C 64.8016357421875 9.673344612121582 58.55091094970703 12.65367794036865 52.66363143920898 16.19656753540039 C 46.83568954467773 19.70401191711426 41.31057739257812 23.79603958129883 36.24182510375977 28.35892868041992 C 31.17868804931641 32.91765213012695 26.53166007995605 37.98464965820312 22.4298267364502 43.41923522949219 C 18.2915210723877 48.9016227722168 14.67377090454102 54.80673217773438 11.67707633972168 60.97042846679688 C 5.44435453414917 73.79256439208984 1.902521014213562 87.57328796386719 1.150020956993103 101.929817199707 C 0.3974098861217499 116.2890930175781 2.479493141174316 130.3646545410156 7.338437557220459 143.7655639648438 C 9.673048973083496 150.2060394287109 12.65338230133057 156.4570465087891 16.19660377502441 162.3448944091797 C 19.70410346984863 168.1729278564453 23.79613304138184 173.6980743408203 28.35899353027344 178.7667541503906 C 32.91763305664062 183.8298950195312 37.9846305847168 188.4768981933594 43.41926956176758 192.5787048339844 C 48.90185546875 196.7171478271484 54.80696487426758 200.3349304199219 60.97055053710938 203.3315124511719 C 73.79065704345703 209.5641174316406 87.57135772705078 213.1059265136719 101.9297180175781 213.8585357666016 C 103.8014373779297 213.9564819335938 105.6996612548828 214.0061492919922 107.571662902832 214.0061492919922 M 107.571662902832 215.0061492919922 C 105.6819686889648 215.0061492919922 103.7661895751953 214.9560089111328 101.8774642944336 214.857177734375 C 87.38457489013672 214.0975189208984 73.47441101074219 210.5222930908203 60.5333251953125 204.2308654785156 C 54.31157684326172 201.2060089111328 48.35088348388672 197.5541839599609 42.81679916381836 193.3768463134766 C 37.33146667480469 189.2367553710938 32.21713256835938 184.5463714599609 27.61582565307617 179.4358673095703 C 23.01029968261719 174.3197631835938 18.88004875183105 168.7429809570312 15.33979892730713 162.8605346679688 C 11.76329898834229 156.9174041748047 8.754938125610352 150.6075897216797 6.398298740386963 144.1063385009766 C 1.49349319934845 130.5789489746094 -0.6082568168640137 116.37109375 0.1513820886611938 101.8774871826172 C 0.9109376668930054 87.38653564453125 4.486159801483154 73.47637176513672 10.7777156829834 60.53326034545898 C 13.80263233184814 54.31148529052734 17.45443725585938 48.35076141357422 21.63168716430664 42.8167610168457 C 25.77182579040527 37.33142852783203 30.46227073669434 32.21706771850586 35.57271575927734 27.61576080322266 C 40.6888542175293 23.01020622253418 46.26557540893555 18.87998390197754 52.14799499511719 15.33976173400879 C 58.090576171875 11.76359462738037 64.40010070800781 8.755233764648438 70.90129852294922 6.398261547088623 C 82.61124420166016 2.1526780128479 94.87998962402344 1.146104568761075e-05 107.3667678833008 1.146104568761075e-05 C 108.9520492553711 1.146104568761075e-05 110.5626907348633 0.03515034914016724 112.1538848876953 0.1045392379164696 C 103.4281005859375 0.8660392165184021 94.80874633789062 2.764566898345947 86.53521728515625 5.749372482299805 C 80.37126922607422 7.972872734069824 74.38877105712891 10.8122615814209 68.75390625 14.18865013122559 C 63.17288208007812 17.53220558166504 57.88565826416016 21.43081665039062 53.03899383544922 25.77614974975586 C 48.19104766845703 30.12184524536133 43.74407577514648 34.94973373413086 39.82157516479492 40.12576293945312 C 35.85988235473633 45.3531494140625 32.39852142333984 50.98048400878906 29.53371620178223 56.85137176513672 C 23.57018852233887 69.06906890869141 20.18274307250977 82.20228576660156 19.46541023254395 95.88614654541016 C 18.74810409545898 109.5694580078125 20.74418830871582 122.9848709106445 25.3981876373291 135.759765625 C 27.63496589660645 141.9002838134766 30.48921585083008 147.8585662841797 33.8816032409668 153.4690704345703 C 37.24140930175781 159.0261840820312 41.15910339355469 164.2925415039062 45.52582550048828 169.1218719482422 C 49.89168930053711 173.9494018554688 54.74260330200195 178.3794250488281 59.94382476806641 182.2888793945312 C 65.19638061523438 186.2359619140625 70.84943389892578 189.6852111816406 76.74591064453125 192.5407562255859 C 89.02069091796875 198.4837646484375 102.2123565673828 201.8621215820312 115.9544067382812 202.5820617675781 C 117.7621612548828 202.6764221191406 119.5892715454102 202.7242889404297 121.3849639892578 202.7242889404297 C 127.7158279418945 202.7242889404297 134.0513610839844 202.1395721435547 140.2156829833984 200.9863739013672 C 147.9351348876953 199.5430908203125 155.4940185546875 197.1963500976562 162.6824035644531 194.0113677978516 C 169.7417144775391 190.8827056884766 176.4576110839844 186.9404907226562 182.6434936523438 182.2942657470703 C 184.5768585205078 180.8419799804688 186.4848480224609 179.2991790771484 188.3145141601562 177.7086486816406 C 188.8358612060547 177.3433990478516 189.3596649169922 176.9682922363281 189.8714141845703 176.5936431884766 C 184.6406097412109 182.8200378417969 178.6976318359375 188.4583740234375 172.2089080810547 193.3534851074219 C 165.6858062744141 198.2757263183594 158.6026000976562 202.4525909423828 151.1560821533203 205.7680358886719 C 143.5755004882812 209.1428985595703 135.6038818359375 211.6301574707031 127.4627151489258 213.16064453125 C 120.950439453125 214.3852386474609 114.2581024169922 215.0061492919922 107.571662902832 215.0061492919922 Z M 145.8148040771484 7.03367805480957 C 144.0027160644531 6.831178188323975 142.1576538085938 6.680122375488281 140.3308868408203 6.584539413452148 C 139.2456817626953 6.527705669403076 138.1437225341797 6.489372730255127 137.0555267333984 6.470594882965088 C 138.9853210449219 6.23359489440918 140.9368896484375 6.060372352600098 142.8558197021484 5.953816890716553 C 143.8437652587891 6.297205924987793 144.83935546875 6.659844875335693 145.8152770996094 7.031705856323242 L 145.8148040771484 7.03367805480957 Z" stroke="none" fill="#3292d2"/>
        </g>
        <path id="Path_3" data-name="Path 3" d="M666.357,280.455c3.544-4.283,3.692-4.431,3.692-4.431l1.92-7.68.738-3.84-2.658-2.068s4.874-6.5,6.941-5.76,6.351.591,7.68,2.068,5.612,5.76,5.612,5.76,5.317-.148,6.646,0,5.76,3.84,3.544,6.5-10.338,7.384-9.156,8.418-1.034,7.975-1.034,7.975-4.431,9.156-7.827,8.27-6.646-6.646-6.646-6.646S662.812,284.738,666.357,280.455Z" transform="translate(-492.578 -200.591)" fill="#72cbeb"/>
        <g data-type="innerShadowGroup">
          <path id="Path_4-2" data-name="Path 4" d="M506.143,329.626s54.156,33.214,103.343,21.1,48.964-11.981,52.11-13.38,39.847-7.293,39.847-25.827,44.91-21.385,44.91-21.385L726.6,307.98l3.4,3.535,47.714-14.727,11.677-4.774.761.935s-43.6,38.6-67.724,52.312-82.252,26.869-128.313,22.482-86.672-36.693-86.672-36.693Z" transform="translate(-506.143 -194.994)" fill="url(#linear-gradient-3)"/>
          <g transform="matrix(1, 0, 0, 1, -272.97, -16.21)" filter="url(#Path_4)">
            <path id="Path_4-3" data-name="Path 4" d="M506.143,329.626s54.156,33.214,103.343,21.1,48.964-11.981,52.11-13.38,39.847-7.293,39.847-25.827,44.91-21.385,44.91-21.385L726.6,307.98l3.4,3.535,47.714-14.727,11.677-4.774.761.935s-43.6,38.6-67.724,52.312-82.252,26.869-128.313,22.482-86.672-36.693-86.672-36.693Z" transform="translate(-233.17 -178.78)" fill="#fff"/>
          </g>
        </g>
        <g data-type="innerShadowGroup">
          <path id="Path_5-2" data-name="Path 5" d="M648.342,368.663s-53.6,5.591-4.416-6.528,39.81-9.846,42.956-11.244c3.932.437,38.308-22.265,49.1-28,.625-.335,52.958-29.878,53.408-29.941,5.695-.8-39.252,28.167-39.252,28.167h0l27.575-24.328h0l11.677-4.774,1.5,2.56s-45.493,37.31-65.959,49.79-74.258,30.472-120.381,26.155,43.787-1.855,43.787-1.855Z" transform="translate(-506.143 -196.878)" fill="#aa1867"/>
          <g transform="matrix(1, 0, 0, 1, -272.97, -16.21)" filter="url(#Path_5)">
            <path id="Path_5-3" data-name="Path 5" d="M648.342,368.663s-53.6,5.591-4.416-6.528,39.81-9.846,42.956-11.244c3.932.437,38.308-22.265,49.1-28,.625-.335,52.958-29.878,53.408-29.941,5.695-.8-39.252,28.167-39.252,28.167h0l27.575-24.328h0l11.677-4.774,1.5,2.56s-45.493,37.31-65.959,49.79-74.258,30.472-120.381,26.155,43.787-1.855,43.787-1.855Z" transform="translate(-233.17 -180.66)" fill="#fff"/>
          </g>
        </g>
      </g>
      <text id="Dream_spark_foundation-2" data-name="Dream spark  foundation" transform="translate(163 511)" fill="#3292d2" font-size="56" font-family="Poppins-Bold, Poppins" font-weight="700"><tspan x="0" y="0" xml:space="preserve">DREAM SPARK  FOUNDATION</tspan></text>
    </g>
    <path id="Intersection_1" data-name="Intersection 1" d="M491.1-179.365a12.02,12.02,0,0,1-4.549-4.463,12.478,12.478,0,0,1-1.68-6.458,12.413,12.413,0,0,1,1.68-6.422,12.011,12.011,0,0,1,4.549-4.462,12.654,12.654,0,0,1,6.3-1.61,12.626,12.626,0,0,1,6.318,1.61,11.919,11.919,0,0,1,4.514,4.462,12.514,12.514,0,0,1,1.662,6.422,12.579,12.579,0,0,1-1.662,6.458,11.892,11.892,0,0,1-4.532,4.463,12.662,12.662,0,0,1-6.3,1.609A12.662,12.662,0,0,1,491.1-179.365Zm2.4-18.025a6.713,6.713,0,0,0-2.642,2.817,9.252,9.252,0,0,0-.945,4.288,9.364,9.364,0,0,0,.945,4.306,6.8,6.8,0,0,0,2.642,2.852,7.556,7.556,0,0,0,3.9,1,7.466,7.466,0,0,0,3.885-1,6.839,6.839,0,0,0,2.624-2.852,9.364,9.364,0,0,0,.945-4.306,9.252,9.252,0,0,0-.945-4.288,6.746,6.746,0,0,0-2.624-2.817,7.571,7.571,0,0,0-3.885-.98A7.662,7.662,0,0,0,493.5-197.39ZM372.77-179.365a12.028,12.028,0,0,1-4.55-4.463,12.485,12.485,0,0,1-1.679-6.458,12.42,12.42,0,0,1,1.679-6.422,12.019,12.019,0,0,1,4.55-4.462,12.653,12.653,0,0,1,6.3-1.61,12.625,12.625,0,0,1,6.317,1.61,11.927,11.927,0,0,1,4.515,4.462,12.522,12.522,0,0,1,1.662,6.422,12.588,12.588,0,0,1-1.662,6.458,11.9,11.9,0,0,1-4.532,4.463,12.662,12.662,0,0,1-6.3,1.609A12.662,12.662,0,0,1,372.77-179.365Zm2.4-18.025a6.707,6.707,0,0,0-2.642,2.817,9.252,9.252,0,0,0-.945,4.288,9.364,9.364,0,0,0,.945,4.306,6.8,6.8,0,0,0,2.642,2.852,7.554,7.554,0,0,0,3.9,1,7.461,7.461,0,0,0,3.884-1,6.835,6.835,0,0,0,2.625-2.852,9.364,9.364,0,0,0,.945-4.306,9.252,9.252,0,0,0-.945-4.288,6.742,6.742,0,0,0-2.625-2.817,7.565,7.565,0,0,0-3.884-.98A7.66,7.66,0,0,0,375.168-197.39Zm-92,18.025a12.019,12.019,0,0,1-4.549-4.463,12.477,12.477,0,0,1-1.68-6.458,12.412,12.412,0,0,1,1.68-6.422,12.011,12.011,0,0,1,4.549-4.462,12.656,12.656,0,0,1,6.3-1.61,12.626,12.626,0,0,1,6.318,1.61,11.919,11.919,0,0,1,4.514,4.462,12.514,12.514,0,0,1,1.663,6.422,12.58,12.58,0,0,1-1.663,6.458,11.892,11.892,0,0,1-4.532,4.463,12.662,12.662,0,0,1-6.3,1.609A12.664,12.664,0,0,1,283.17-179.365Zm2.4-18.025a6.713,6.713,0,0,0-2.642,2.817,9.252,9.252,0,0,0-.945,4.288,9.365,9.365,0,0,0,.945,4.306,6.8,6.8,0,0,0,2.642,2.852,7.558,7.558,0,0,0,3.9,1,7.464,7.464,0,0,0,3.885-1,6.841,6.841,0,0,0,2.625-2.852,9.364,9.364,0,0,0,.945-4.306,9.252,9.252,0,0,0-.945-4.288,6.748,6.748,0,0,0-2.625-2.817,7.569,7.569,0,0,0-3.885-.98A7.665,7.665,0,0,0,285.567-197.39ZM159.13-179.365a12.019,12.019,0,0,1-4.549-4.463,12.477,12.477,0,0,1-1.68-6.458,12.412,12.412,0,0,1,1.68-6.422,12.011,12.011,0,0,1,4.549-4.462,12.653,12.653,0,0,1,6.3-1.61,12.626,12.626,0,0,1,6.318,1.61,11.919,11.919,0,0,1,4.514,4.462,12.514,12.514,0,0,1,1.662,6.422,12.579,12.579,0,0,1-1.662,6.458,11.892,11.892,0,0,1-4.532,4.463,12.662,12.662,0,0,1-6.3,1.609A12.662,12.662,0,0,1,159.13-179.365Zm2.4-18.025a6.713,6.713,0,0,0-2.642,2.817,9.252,9.252,0,0,0-.945,4.288,9.364,9.364,0,0,0,.945,4.306,6.8,6.8,0,0,0,2.642,2.852,7.556,7.556,0,0,0,3.9,1,7.466,7.466,0,0,0,3.885-1,6.839,6.839,0,0,0,2.624-2.852,9.364,9.364,0,0,0,.945-4.306,9.252,9.252,0,0,0-.945-4.288,6.746,6.746,0,0,0-2.624-2.817,7.571,7.571,0,0,0-3.885-.98A7.662,7.662,0,0,0,161.527-197.39Zm-52.08,18.76a7.558,7.558,0,0,1-3.237-2.52,6.636,6.636,0,0,1-1.225-3.884h5.25a3.4,3.4,0,0,0,1.067,2.38,3.784,3.784,0,0,0,2.643.875,4.061,4.061,0,0,0,2.695-.823,2.674,2.674,0,0,0,.98-2.152,2.487,2.487,0,0,0-.665-1.786,4.665,4.665,0,0,0-1.662-1.1,27.615,27.615,0,0,0-2.748-.892,29.565,29.565,0,0,1-3.867-1.382,6.781,6.781,0,0,1-2.555-2.066,5.884,5.884,0,0,1-1.067-3.693,6.608,6.608,0,0,1,1.084-3.78,6.9,6.9,0,0,1,3.046-2.467,11.065,11.065,0,0,1,4.479-.858,9.715,9.715,0,0,1,6.143,1.838,6.814,6.814,0,0,1,2.608,5.127h-5.39a2.8,2.8,0,0,0-1.067-2.083,4.024,4.024,0,0,0-2.642-.823,3.4,3.4,0,0,0-2.293.735,2.656,2.656,0,0,0-.857,2.135,2.2,2.2,0,0,0,.647,1.627,4.935,4.935,0,0,0,1.61,1.05q.963.4,2.713.927a28.441,28.441,0,0,1,3.884,1.4,6.975,6.975,0,0,1,2.59,2.1,5.832,5.832,0,0,1,1.085,3.676,6.909,6.909,0,0,1-1.015,3.64,7.164,7.164,0,0,1-2.975,2.677,10.141,10.141,0,0,1-4.655,1A11.609,11.609,0,0,1,109.447-178.63Zm-178.115-.752a11.591,11.591,0,0,1-4.48-4.427,12.7,12.7,0,0,1-1.627-6.44,12.794,12.794,0,0,1,1.627-6.458,11.558,11.558,0,0,1,4.48-4.445,12.814,12.814,0,0,1,6.352-1.592,12.709,12.709,0,0,1,7.175,2.012,10.278,10.278,0,0,1,4.2,5.652h-5.635a5.736,5.736,0,0,0-2.31-2.345,7.033,7.033,0,0,0-3.43-.805,7.5,7.5,0,0,0-3.85.98,6.771,6.771,0,0,0-2.624,2.8,8.989,8.989,0,0,0-.945,4.2,9.011,9.011,0,0,0,.962,4.271,6.817,6.817,0,0,0,2.677,2.8,7.9,7.9,0,0,0,3.99.98,6.92,6.92,0,0,0,4.585-1.488,7.1,7.1,0,0,0,2.345-4.148h-8.4v-3.745h13.23v4.271a11.49,11.49,0,0,1-2.1,4.725,11.86,11.86,0,0,1-4.148,3.482,12.2,12.2,0,0,1-5.687,1.313A12.873,12.873,0,0,1-68.667-179.383ZM527.224-202.43h5.251l4.3,18.97,4.97-18.97h5.46l4.69,18.865,4.34-18.865h5.286L554.7-178h-5.774l-4.585-17.4-4.8,17.4-5.739.035ZM460.9-178l-5.39-9.52H453.2V-178h-4.9v-24.43h9.17a10.708,10.708,0,0,1,4.83,1,6.964,6.964,0,0,1,2.992,2.7,7.351,7.351,0,0,1,1,3.8,7.276,7.276,0,0,1-1.4,4.358,7.193,7.193,0,0,1-4.164,2.677l5.845,9.9ZM453.2-191.2h4.1a4.092,4.092,0,0,0,2.975-.962,3.582,3.582,0,0,0,.98-2.677,3.418,3.418,0,0,0-.98-2.608,4.191,4.191,0,0,0-2.975-.927h-4.1ZM423.135-178l-5.39-9.52h-2.31V-178h-4.9v-24.43h9.17a10.7,10.7,0,0,1,4.829,1,6.961,6.961,0,0,1,2.992,2.7,7.351,7.351,0,0,1,1,3.8,7.276,7.276,0,0,1-1.4,4.358,7.192,7.192,0,0,1-4.165,2.677l5.846,9.9Zm-7.7-13.195h4.1a4.092,4.092,0,0,0,2.975-.962,3.582,3.582,0,0,0,.98-2.677,3.418,3.418,0,0,0-.98-2.608,4.191,4.191,0,0,0-2.975-.927h-4.1ZM342.67-178v-15.89L336.125-178h-3.71l-6.58-15.89V-178h-4.9v-24.43H326.5l7.77,18.165,7.77-18.165h5.53V-178Zm-94.85,0v-20.475h-6.51v-3.955h17.92v3.955h-6.51V-178Zm-50.925,0v-24.43H211.98v3.955H201.8v6.265h7.8v3.885h-7.8V-178ZM80.45-178l-5.39-9.52H72.75V-178h-4.9v-24.43h9.17a10.7,10.7,0,0,1,4.829,1,6.961,6.961,0,0,1,2.993,2.7,7.351,7.351,0,0,1,1,3.8,7.275,7.275,0,0,1-1.4,4.358,7.192,7.192,0,0,1-4.165,2.677L86.12-178ZM72.75-191.2h4.1a4.092,4.092,0,0,0,2.975-.962,3.582,3.582,0,0,0,.98-2.677,3.418,3.418,0,0,0-.98-2.608,4.191,4.191,0,0,0-2.975-.927h-4.1ZM33.9-178v-24.465H48.075v3.99H38.8v6.125h8.225v3.884H38.8v6.476h9.275V-178ZM.72-178l-8.96-24.43H-2.99L3.73-183.005l6.685-19.425H15.63L6.67-178Zm-32.095,0v-24.43h4.9V-178ZM-50.94-195.08Z" transform="translate(167 544)" fill="#3292d2" stroke="rgba(0,0,0,0)" stroke-miterlimit="10" stroke-width="1"/>
  </g>
</svg>
